<?xml version="1.0" encoding="utf-8"?>
<!-- Generator: Adobe Illustrator 25.0.0, SVG Export Plug-In . SVG Version: 6.00 Build 0)  -->
<svg version="1.0" id="Layer_1" xmlns="http://www.w3.org/2000/svg" xmlns:xlink="http://www.w3.org/1999/xlink" x="0px" y="0px"
	 viewBox="0 0 512 512" style="enable-background:new 0 0 512 512;" xml:space="preserve">
<circle style="fill:#F04923;" cx="256.4" cy="255.9" r="223.5"/>
<g>
	<path style="fill:#FFFFFF;" d="M420.4,252.4c0-20.2-16.4-36.6-36.6-36.6c-10,0-19.1,4-25.8,10.6c-25.6-18.3-61.1-30.1-100.5-31.2
		l17.3-80.4c0.2-1.1,1.3-1.7,2.3-1.5l53.4,11.7c0.2,0,0.3,0.1,0.5,0.1c0,0.3,0,0.6,0,0.9c0,14.8,12,26.7,26.7,26.7
		c14.8,0,26.7-12,26.7-26.7c0-14.8-12-26.7-26.7-26.7c-10,0-18.7,5.5-23.3,13.7c-0.4-0.2-0.7-0.3-1.1-0.4l-58-12.7
		c-2.6-0.6-5.3-0.1-7.5,1.4c-2.2,1.4-3.8,3.7-4.4,6.3l-18.9,87.7c-39.2,1.2-74.3,13-99.8,31.2c-6.6-6.6-15.8-10.7-25.9-10.7
		c-20.2,0-36.6,16.4-36.6,36.6c0,15,9,27.8,21.8,33.5c-0.7,3.9-1,7.9-1,11.9c0,56.7,66.4,102.6,148.4,102.6s148.4-46,148.4-102.6
		c0-4.1-0.4-8.1-1-12C411.6,280.1,420.4,267.3,420.4,252.4z"/>
	<g>
		<circle style="fill:#F04923;" cx="193.4" cy="279.9" r="25.8"/>
		<circle style="fill:#F04923;" cx="310.2" cy="279.9" r="25.8"/>
		<g>
			<path style="fill:#F04923;" d="M252.3,370c-12.7,0-24.7-2-35.6-5.8c-10.4-3.7-19.7-9-27.5-15.8c-3.5-3-3.6-8-0.2-11.2
				c3.4-3.1,8.9-3.2,12.4-0.2c13,11.2,30.6,17.2,51,17.2c19.7,0,36.9-5.6,49.9-16.2c3.6-2.9,9.1-2.7,12.4,0.5
				c3.3,3.2,3,8.2-0.6,11.1C297.8,362.9,276.5,370,252.3,370z"/>
		</g>
	</g>
</g>
</svg>
